<?xml version="1.0" encoding="UTF-8"?>
<svg xmlns="http://www.w3.org/2000/svg" xmlns:xlink="http://www.w3.org/1999/xlink" width="100px" height="px" viewBox="0 0 101 40" version="1.1">
<g id="surface1">
<path style=" stroke:none;fill-rule:nonzero;fill:rgb(0.392157%,12.54902%,38.039216%);fill-opacity:1;" d="M 71.679688 15.789062 C 71.609375 14.609375 71.632812 13.546875 71.472656 12.488281 C 71.148438 10.410156 69.902344 9.253906 67.828125 8.933594 C 67.226562 8.839844 66.605469 8.792969 66.003906 8.816406 C 63.464844 8.792969 60.953125 8.816406 58.414062 8.816406 L 57.722656 8.816406 L 57.722656 7.15625 C 57.859375 7.109375 58 7.085938 58.136719 7.085938 C 61.898438 7.085938 65.636719 7.085938 69.394531 7.15625 C 71.011719 7.179688 72.578125 7.640625 73.964844 8.472656 C 75.785156 9.554688 76.800781 11.148438 76.824219 13.292969 C 76.847656 19.179688 76.824219 25.066406 76.847656 30.929688 C 76.847656 31.34375 76.710938 31.484375 76.316406 31.484375 C 71.542969 31.460938 66.742188 31.507812 61.96875 31.4375 C 59.796875 31.414062 57.746094 30.835938 56.058594 29.359375 C 54.90625 28.390625 54.261719 26.980469 54.238281 25.480469 C 54.214844 24.464844 54.238281 23.449219 54.238281 22.433594 C 54.238281 19.574219 55.4375 17.773438 58.089844 16.640625 C 59.566406 16.042969 61.160156 15.742188 62.773438 15.765625 C 65.472656 15.742188 68.171875 15.765625 70.871094 15.765625 L 71.679688 15.765625 Z M 71.609375 23.636719 L 71.609375 18.074219 C 71.609375 17.632812 71.472656 17.496094 71.035156 17.496094 C 69.558594 17.519531 68.082031 17.496094 66.605469 17.519531 C 65.519531 17.496094 64.414062 17.542969 63.328125 17.632812 C 61.113281 17.886719 59.796875 19.132812 59.542969 21.351562 C 59.382812 22.734375 59.359375 24.121094 59.453125 25.503906 C 59.660156 28.089844 61.042969 29.519531 63.582031 29.660156 C 66.144531 29.796875 68.632812 29.730469 71.148438 29.773438 C 71.609375 29.773438 71.589844 29.519531 71.589844 29.199219 C 71.609375 27.328125 71.609375 25.480469 71.609375 23.636719 M 9.5 8.792969 L 9.5 7.203125 C 9.570312 7.15625 9.59375 7.109375 9.640625 7.109375 C 12.316406 7.109375 14.992188 6.808594 17.621094 7.523438 C 18.523438 7.777344 19.375 8.148438 20.160156 8.632812 C 21.890625 9.671875 22.765625 11.265625 22.765625 13.316406 L 22.765625 30.90625 C 22.765625 31.066406 22.746094 31.230469 22.722656 31.4375 C 22.511719 31.460938 22.328125 31.484375 22.144531 31.484375 L 8.554688 31.484375 C 6.753906 31.484375 4.980469 31.183594 3.363281 30.304688 C 1.21875 29.152344 0.0859375 27.398438 0.109375 24.949219 C 0.132812 23.703125 0.0195312 22.457031 0.203125 21.234375 C 0.527344 18.949219 2.003906 17.542969 4.03125 16.664062 C 5.53125 16.019531 7.101562 15.789062 8.714844 15.789062 C 11.414062 15.765625 14.117188 15.789062 16.816406 15.789062 L 17.554688 15.789062 C 17.574219 14.355469 17.667969 12.996094 17.230469 11.679688 C 16.628906 9.855469 15.085938 8.886719 12.617188 8.816406 C 11.625 8.769531 10.585938 8.792969 9.5 8.792969 M 17.554688 17.496094 L 14.96875 17.496094 C 13.101562 17.519531 11.207031 17.472656 9.363281 17.609375 C 7.148438 17.796875 5.785156 19.089844 5.507812 21.28125 C 5.347656 22.734375 5.324219 24.1875 5.441406 25.621094 C 5.671875 28.042969 7.03125 29.496094 9.316406 29.613281 C 12.015625 29.75 14.691406 29.707031 17.390625 29.707031 C 17.4375 29.707031 17.460938 29.660156 17.53125 29.613281 Z M 82.15625 7.085938 L 99.550781 7.085938 C 100.660156 7.085938 100.449219 6.96875 100.683594 7.964844 C 100.726562 8.21875 100.796875 8.449219 100.890625 8.792969 L 92.746094 8.792969 C 92.144531 8.792969 91.570312 8.839844 90.992188 8.933594 C 88.753906 9.347656 87.484375 10.824219 87.371094 13.132812 C 87.324219 14.125 87.347656 15.117188 87.324219 16.109375 L 87.324219 31.4375 L 82.15625 31.4375 Z M 48.90625 29.773438 L 48.90625 31.414062 C 48.699219 31.4375 48.515625 31.460938 48.332031 31.460938 L 36.449219 31.460938 C 34.71875 31.460938 33.035156 31.183594 31.488281 30.398438 C 29.226562 29.265625 28.027344 27.511719 28.050781 24.90625 C 28.097656 21.097656 28.074219 17.265625 28.050781 13.457031 C 28.050781 11.285156 28.972656 9.648438 30.796875 8.515625 C 32.410156 7.523438 34.210938 7.132812 36.195312 7.085938 C 35.640625 8.078125 35.273438 9.117188 34.601562 9.925781 C 33.726562 10.941406 33.242188 12.234375 33.242188 13.570312 C 33.21875 17.355469 33.21875 21.121094 33.242188 24.882812 C 33.265625 25.480469 33.335938 26.105469 33.519531 26.683594 C 33.957031 28.320312 35.320312 29.40625 37.234375 29.636719 C 37.789062 29.707031 38.363281 29.730469 38.941406 29.730469 L 48.101562 29.730469 Z M 48.90625 29.773438 "/>
<path style=" stroke:none;fill-rule:nonzero;fill:rgb(89.019608%,0.392157%,5.882353%);fill-opacity:1;" d="M 39.425781 18.648438 C 37.972656 17.933594 36.75 17.125 35.894531 15.878906 C 35.132812 14.839844 34.996094 13.503906 35.480469 12.324219 C 36.035156 11.054688 36.703125 9.832031 37.417969 8.65625 C 38.203125 7.339844 39.101562 6.09375 39.863281 4.753906 C 40.671875 3.347656 41.109375 1.800781 40.71875 0.136719 L 40.878906 -0.0234375 C 41.085938 0.277344 41.316406 0.554688 41.546875 0.832031 C 42.285156 1.824219 43.070312 2.792969 43.761719 3.832031 C 45.195312 6 45.148438 8.261719 43.902344 10.457031 C 43.230469 11.609375 42.332031 12.648438 41.5 13.710938 C 40.417969 15.164062 39.425781 16.640625 39.425781 18.648438 M 42.816406 18.648438 C 41.824219 17.449219 41.6875 15.765625 42.449219 14.402344 C 42.703125 13.941406 43 13.503906 43.347656 13.109375 C 43.738281 12.601562 44.179688 12.164062 44.546875 11.65625 C 44.917969 11.148438 45.238281 10.59375 45.5625 10.0625 C 47.199219 13.273438 46.347656 16.710938 42.816406 18.648438 "/>
<path style=" stroke:none;fill-rule:nonzero;fill:rgb(33.725491%,33.725491%,33.725491%);fill-opacity:1;" d="M 79.917969 39.792969 C 79.363281 39.976562 79.203125 39.839844 79.203125 39.355469 C 79.226562 37.761719 79.203125 36.191406 79.226562 34.621094 C 79.226562 34.414062 79.339844 34.066406 79.480469 34.023438 C 79.777344 33.882812 80.148438 34 80.308594 34.300781 C 80.308594 34.320312 80.332031 34.320312 80.332031 34.34375 C 80.769531 35.246094 81.230469 36.097656 81.671875 37 C 81.714844 37.113281 81.785156 37.207031 81.902344 37.367188 C 82.410156 36.375 82.871094 35.453125 83.355469 34.507812 C 83.425781 34.320312 83.539062 34.160156 83.675781 34.046875 C 84.140625 33.746094 84.601562 34.023438 84.601562 34.554688 L 84.601562 39.285156 C 84.601562 39.839844 84.394531 39.929688 83.863281 39.769531 L 83.863281 35.246094 L 83.722656 35.199219 C 83.609375 35.429688 83.515625 35.660156 83.402344 35.867188 C 83.03125 36.605469 82.664062 37.324219 82.269531 38.039062 C 82.179688 38.199219 81.992188 38.429688 81.855469 38.40625 C 81.714844 38.382812 81.53125 38.175781 81.441406 38.015625 C 80.957031 37.113281 80.492188 36.214844 79.917969 35.128906 Z M 20.207031 38.800781 L 20.207031 36.445312 C 20.207031 35.800781 20.183594 35.128906 20.230469 34.484375 C 20.253906 34.320312 20.414062 34.160156 20.53125 33.976562 C 20.644531 34.160156 20.875 34.320312 20.875 34.507812 C 20.898438 36.097656 20.898438 37.714844 20.875 39.308594 C 20.875 39.492188 20.761719 39.792969 20.621094 39.839844 C 20.296875 39.976562 19.929688 39.816406 19.789062 39.492188 C 19.097656 38.199219 18.382812 36.953125 17.691406 35.683594 C 17.597656 35.5 17.484375 35.335938 17.324219 35.222656 L 17.324219 38.269531 C 17.324219 38.683594 17.34375 39.121094 17.300781 39.539062 C 17.300781 39.652344 17.089844 39.863281 17.023438 39.839844 C 16.882812 39.769531 16.769531 39.675781 16.675781 39.5625 C 16.628906 39.492188 16.652344 39.355469 16.652344 39.238281 C 16.652344 37.691406 16.652344 36.167969 16.675781 34.621094 C 16.722656 34.390625 16.792969 34.183594 16.90625 33.976562 C 17.183594 34.089844 17.597656 34.136719 17.738281 34.34375 C 18.5 35.636719 19.191406 36.953125 19.90625 38.269531 C 19.953125 38.40625 20.042969 38.523438 20.207031 38.800781 M 100.726562 39.792969 C 100.175781 39.976562 99.851562 39.839844 99.621094 39.355469 C 99.390625 38.867188 99.042969 38.40625 98.835938 37.921875 C 98.628906 37.4375 98.257812 37.300781 97.773438 37.390625 C 97.242188 37.484375 97.496094 37.921875 97.476562 38.222656 C 97.429688 38.636719 97.496094 39.078125 97.453125 39.492188 C 97.429688 39.628906 97.222656 39.746094 97.105469 39.882812 C 96.992188 39.746094 96.757812 39.628906 96.757812 39.492188 C 96.738281 37.691406 96.738281 35.890625 96.738281 34.046875 C 97.589844 34 98.445312 34.023438 99.273438 34.066406 C 99.921875 34.136719 100.429688 34.644531 100.472656 35.269531 C 100.589844 35.984375 100.472656 36.652344 99.828125 37.113281 C 99.710938 37.207031 99.574219 37.277344 99.390625 37.390625 Z M 98.351562 36.769531 L 98.445312 36.929688 C 98.835938 36.722656 99.320312 36.582031 99.597656 36.261719 C 99.921875 35.867188 99.828125 35.335938 99.480469 34.921875 C 99.25 34.621094 98.050781 34.367188 97.707031 34.644531 C 97.496094 34.808594 97.519531 35.246094 97.476562 35.589844 L 97.476562 35.914062 C 97.453125 36.769531 97.453125 36.769531 98.351562 36.769531 M 38.203125 37.023438 C 38.132812 37.507812 38.042969 38.015625 37.925781 38.5 C 37.648438 39.46875 36.910156 40 35.917969 40.023438 C 34.925781 40.046875 34.117188 39.539062 33.796875 38.570312 C 33.449219 37.554688 33.449219 36.421875 33.796875 35.40625 C 34.117188 34.390625 34.855469 33.90625 35.894531 33.929688 C 36.980469 33.953125 37.695312 34.484375 37.972656 35.523438 C 38.0625 36.007812 38.132812 36.515625 38.203125 37.023438 M 37.371094 36.953125 C 37.324219 36.492188 37.28125 36.054688 37.1875 35.589844 C 37.003906 34.851562 36.542969 34.507812 35.847656 34.507812 C 35.15625 34.507812 34.601562 34.875 34.511719 35.613281 C 34.417969 36.492188 34.417969 37.367188 34.511719 38.222656 C 34.601562 38.984375 35.085938 39.308594 35.824219 39.332031 C 36.585938 39.332031 37.003906 39.03125 37.210938 38.222656 C 37.28125 37.808594 37.304688 37.390625 37.371094 36.953125 M 27.382812 36.976562 C 27.335938 37.484375 27.242188 37.96875 27.128906 38.476562 C 26.851562 39.445312 26.066406 39.976562 25.050781 40 C 24.082031 40.046875 23.230469 39.421875 22.976562 38.5 C 22.675781 37.53125 22.652344 36.492188 22.929688 35.5 C 23.207031 34.484375 23.945312 33.90625 25.003906 33.90625 C 26.066406 33.90625 26.828125 34.414062 27.128906 35.429688 C 27.242188 35.9375 27.335938 36.46875 27.382812 36.976562 M 26.597656 36.90625 C 26.550781 36.445312 26.457031 35.984375 26.367188 35.523438 C 26.25 34.921875 25.71875 34.484375 25.097656 34.507812 C 24.40625 34.484375 23.875 34.785156 23.757812 35.5 C 23.621094 36.398438 23.621094 37.324219 23.714844 38.222656 C 23.804688 39.03125 24.3125 39.332031 25.097656 39.308594 C 25.8125 39.285156 26.226562 38.960938 26.414062 38.199219 C 26.503906 37.808594 26.527344 37.367188 26.597656 36.90625 M 47.570312 39.839844 L 46.808594 39.839844 L 46.808594 37.046875 C 46.808594 36.191406 46.785156 35.316406 46.832031 34.460938 C 46.855469 34.253906 46.992188 34.089844 47.15625 34 C 47.5 33.90625 47.546875 34.183594 47.546875 34.460938 L 47.546875 36.398438 C 48.007812 36.605469 48.285156 36.492188 48.515625 36.144531 C 48.886719 35.546875 49.300781 34.945312 49.738281 34.390625 C 49.921875 34.160156 50.246094 34.066406 50.523438 33.90625 L 50.683594 34.113281 C 50.199219 34.828125 49.714844 35.570312 49.183594 36.261719 C 48.90625 36.605469 48.929688 36.859375 49.183594 37.207031 C 49.785156 38.039062 50.363281 38.914062 50.9375 39.769531 C 50.40625 40 50.085938 39.863281 49.808594 39.421875 C 49.390625 38.730469 48.929688 38.085938 48.445312 37.4375 C 48.308594 37.253906 48.007812 37.230469 47.777344 37.113281 C 47.683594 37.300781 47.617188 37.507812 47.570312 37.714844 C 47.546875 38.40625 47.570312 39.101562 47.570312 39.839844 M 14.832031 34.136719 C 14.347656 34.851562 13.863281 35.570312 13.355469 36.261719 C 13.101562 36.515625 13.101562 36.953125 13.355469 37.207031 C 13.953125 38.039062 14.507812 38.914062 15.128906 39.792969 C 14.621094 39.976562 14.300781 39.90625 14.023438 39.46875 C 13.609375 38.800781 13.167969 38.152344 12.707031 37.53125 C 12.546875 37.324219 12.246094 37.253906 12.015625 37.113281 C 11.898438 37.324219 11.808594 37.554688 11.761719 37.785156 C 11.714844 38.339844 11.785156 38.890625 11.738281 39.421875 C 11.714844 39.585938 11.507812 39.722656 11.394531 39.863281 C 11.277344 39.722656 11.046875 39.5625 11.046875 39.398438 C 11.023438 37.738281 11.023438 36.074219 11.046875 34.414062 C 11.046875 34.277344 11.277344 34.113281 11.414062 33.976562 C 11.53125 34.136719 11.738281 34.277344 11.761719 34.4375 C 11.808594 34.921875 11.761719 35.40625 11.785156 35.890625 C 11.832031 36.097656 11.898438 36.308594 11.96875 36.492188 C 12.222656 36.375 12.546875 36.328125 12.683594 36.144531 C 13.125 35.589844 13.492188 34.945312 13.929688 34.390625 C 14.117188 34.160156 14.460938 34.046875 14.714844 33.882812 Z M 67.042969 34.367188 C 66.859375 34.484375 66.671875 34.554688 66.464844 34.597656 C 65.980469 34.621094 65.496094 34.53125 65.011719 34.574219 C 64.574219 34.597656 64.226562 34.945312 64.203125 35.382812 C 64.160156 35.867188 64.4375 36.121094 64.851562 36.285156 C 65.265625 36.445312 65.726562 36.582031 66.144531 36.769531 C 66.972656 37.136719 67.320312 37.667969 67.226562 38.476562 C 67.203125 39.238281 66.605469 39.839844 65.84375 39.863281 C 65.175781 39.929688 64.480469 39.816406 63.789062 39.722656 C 63.675781 39.699219 63.582031 39.445312 63.488281 39.285156 C 63.628906 39.214844 63.789062 39.144531 63.949219 39.121094 C 64.480469 39.144531 64.988281 39.261719 65.519531 39.214844 C 65.980469 39.191406 66.375 38.984375 66.441406 38.429688 C 66.511719 37.875 66.234375 37.554688 65.75 37.367188 C 65.265625 37.183594 64.828125 37.070312 64.390625 36.882812 C 63.675781 36.5625 63.398438 36.074219 63.464844 35.335938 C 63.535156 34.621094 63.949219 34.066406 64.667969 33.976562 C 65.425781 33.929688 66.1875 33.90625 66.949219 33.953125 Z M 58.898438 34.367188 C 58.714844 34.484375 58.527344 34.554688 58.320312 34.597656 C 57.859375 34.621094 57.398438 34.53125 56.9375 34.574219 C 56.5 34.574219 56.128906 34.898438 56.058594 35.359375 C 55.992188 35.867188 56.269531 36.144531 56.707031 36.308594 C 57.167969 36.492188 57.652344 36.628906 58.113281 36.835938 C 58.78125 37.070312 59.175781 37.761719 59.058594 38.453125 C 58.992188 39.261719 58.621094 39.769531 57.789062 39.863281 C 57.074219 39.953125 56.335938 39.816406 55.621094 39.746094 C 55.53125 39.746094 55.4375 39.492188 55.34375 39.355469 C 55.484375 39.285156 55.621094 39.144531 55.761719 39.144531 C 56.269531 39.167969 56.753906 39.285156 57.261719 39.261719 C 57.769531 39.238281 58.160156 39.054688 58.253906 38.476562 C 58.34375 37.898438 58.023438 37.578125 57.515625 37.390625 C 57.074219 37.230469 56.636719 37.089844 56.199219 36.929688 C 55.484375 36.628906 55.183594 36.097656 55.253906 35.382812 C 55.320312 34.667969 55.714844 34.113281 56.429688 34.023438 C 57.191406 33.976562 57.953125 33.953125 58.714844 34 Z M 5.855469 33.976562 L 8.785156 33.976562 C 8.902344 33.976562 9.015625 34.136719 9.132812 34.230469 C 9.015625 34.34375 8.902344 34.53125 8.785156 34.53125 C 8.207031 34.574219 7.609375 34.53125 7.007812 34.574219 C 6.800781 34.621094 6.640625 34.785156 6.570312 34.992188 C 6.410156 36.582031 6.410156 36.582031 8 36.582031 C 8.117188 36.5625 8.253906 36.5625 8.371094 36.582031 C 8.484375 36.652344 8.601562 36.746094 8.714844 36.859375 C 8.601562 36.953125 8.507812 37.113281 8.371094 37.136719 C 7.953125 37.160156 7.539062 37.183594 7.101562 37.160156 C 6.710938 37.136719 6.523438 37.253906 6.523438 37.691406 C 6.570312 39.628906 6.246094 39.214844 8.070312 39.261719 C 8.347656 39.238281 8.625 39.261719 8.878906 39.285156 C 8.992188 39.308594 9.085938 39.492188 9.179688 39.585938 C 9.085938 39.675781 8.992188 39.769531 8.878906 39.839844 C 8.785156 39.863281 8.671875 39.863281 8.578125 39.863281 L 5.855469 39.863281 Z M 91.589844 39.882812 L 91.589844 34 C 92.605469 34 93.621094 34 94.613281 34.023438 C 94.707031 34.023438 94.867188 34.230469 94.867188 34.277344 C 94.820312 34.390625 94.683594 34.574219 94.566406 34.574219 C 93.992188 34.597656 93.4375 34.597656 92.859375 34.574219 C 92.398438 34.554688 92.285156 34.738281 92.285156 35.175781 C 92.328125 36.90625 92.054688 36.582031 93.691406 36.628906 C 93.785156 36.605469 93.898438 36.605469 94.015625 36.628906 C 94.175781 36.722656 94.3125 36.816406 94.453125 36.929688 C 94.3125 37.023438 94.175781 37.183594 94.035156 37.183594 C 93.621094 37.207031 93.207031 37.207031 92.769531 37.207031 C 92.421875 37.183594 92.308594 37.324219 92.285156 37.667969 C 92.191406 39.308594 92.191406 39.308594 93.828125 39.308594 C 94.105469 39.308594 94.382812 39.332031 94.660156 39.375 C 94.777344 39.398438 94.867188 39.585938 94.960938 39.675781 C 94.867188 39.769531 94.777344 39.929688 94.660156 39.929688 C 93.644531 39.882812 92.652344 39.882812 91.589844 39.882812 M 77.03125 36.835938 C 76.871094 36.953125 76.734375 37.160156 76.546875 37.183594 C 76.179688 37.207031 75.785156 37.230469 75.417969 37.207031 C 75.300781 37.207031 75.164062 37.207031 75.046875 37.230469 C 74.933594 37.808594 74.863281 38.359375 74.839844 38.9375 C 74.839844 39.054688 75.164062 39.261719 75.347656 39.285156 C 75.925781 39.332031 76.480469 39.285156 77.054688 39.308594 C 77.195312 39.308594 77.332031 39.46875 77.472656 39.5625 C 77.332031 39.675781 77.195312 39.863281 77.03125 39.863281 C 76.203125 39.882812 75.347656 39.863281 74.519531 39.882812 C 74.195312 39.882812 74.054688 39.769531 74.054688 39.445312 L 74.054688 34.390625 C 74.054688 34.046875 74.21875 33.976562 74.519531 33.976562 C 75.324219 34 76.109375 33.976562 76.917969 34 C 77.078125 34 77.21875 34.183594 77.355469 34.277344 C 77.21875 34.367188 77.054688 34.554688 76.917969 34.554688 C 76.363281 34.574219 75.832031 34.574219 75.28125 34.554688 C 74.933594 34.554688 74.796875 34.667969 74.796875 35.039062 C 74.816406 36.953125 74.5625 36.5625 76.226562 36.605469 L 76.917969 36.605469 Z M 70.089844 39.792969 L 70.089844 34.597656 C 69.671875 34.621094 69.257812 34.621094 68.867188 34.574219 C 68.726562 34.554688 68.613281 34.390625 68.472656 34.300781 C 68.589844 34.183594 68.703125 34 68.84375 34 C 69.925781 33.976562 71.035156 33.976562 72.117188 34 C 72.234375 34 72.347656 34.160156 72.441406 34.253906 C 72.328125 34.367188 72.234375 34.554688 72.09375 34.574219 C 71.703125 34.667969 71.125 34.574219 70.964844 34.808594 C 70.757812 35.082031 70.894531 35.613281 70.894531 36.03125 C 70.894531 37.089844 70.871094 38.175781 70.894531 39.238281 C 70.917969 39.863281 70.664062 40 70.089844 39.792969 M 86.675781 36.976562 C 86.675781 36.144531 86.652344 35.335938 86.699219 34.53125 C 86.722656 34.320312 86.863281 34.136719 87.046875 34.023438 C 87.4375 33.929688 87.4375 34.253906 87.4375 34.554688 C 87.4375 35.890625 87.460938 37.253906 87.4375 38.59375 C 87.4375 39.101562 87.554688 39.332031 88.109375 39.285156 C 88.613281 39.238281 89.121094 39.238281 89.605469 39.285156 C 89.746094 39.285156 89.859375 39.46875 89.976562 39.585938 C 89.859375 39.699219 89.746094 39.882812 89.605469 39.882812 C 88.753906 39.90625 87.875 39.90625 87.023438 39.863281 C 86.882812 39.863281 86.675781 39.539062 86.675781 39.375 C 86.652344 38.570312 86.675781 37.761719 86.675781 36.976562 M 1.886719 37.183594 C 1.886719 36.515625 1.863281 35.84375 1.886719 35.152344 C 1.886719 34.761719 1.75 34.554688 1.332031 34.597656 C 1.054688 34.621094 0.78125 34.621094 0.527344 34.574219 C 0.386719 34.554688 0.273438 34.367188 0.15625 34.277344 C 0.273438 34.183594 0.363281 34 0.480469 34 C 1.609375 33.976562 2.742188 33.976562 3.894531 34 C 4.007812 34 4.125 34.207031 4.242188 34.320312 L 3.894531 34.597656 C 3.871094 34.621094 3.800781 34.597656 3.777344 34.597656 C 2.625 34.667969 2.625 34.667969 2.625 35.867188 C 2.625 37.070312 2.648438 38.175781 2.601562 39.332031 C 2.578125 39.539062 2.464844 39.746094 2.277344 39.839844 C 1.863281 39.929688 1.886719 39.585938 1.886719 39.308594 C 1.863281 38.613281 1.886719 37.898438 1.886719 37.183594 M 29.25 39.882812 L 29.25 34.023438 L 29.941406 33.976562 L 29.941406 36.285156 C 29.941406 37.023438 29.988281 37.761719 29.917969 38.5 C 29.875 39.144531 30.128906 39.308594 30.703125 39.261719 C 31.164062 39.214844 31.628906 39.214844 32.089844 39.261719 C 32.226562 39.285156 32.34375 39.445312 32.457031 39.5625 C 32.34375 39.652344 32.203125 39.863281 32.089844 39.863281 C 31.1875 39.882812 30.265625 39.882812 29.25 39.882812 M 41.132812 36.445312 C 41.132812 35.777344 41.109375 35.105469 41.15625 34.4375 C 41.15625 34.277344 41.386719 34.136719 41.523438 34 C 41.664062 34.136719 41.894531 34.300781 41.894531 34.4375 C 41.917969 35.824219 41.917969 37.207031 41.894531 38.59375 C 41.871094 39.816406 40.648438 40.300781 39.449219 39.816406 C 39.332031 39.746094 39.285156 39.609375 39.285156 39.492188 C 39.332031 39.375 39.449219 39.285156 39.585938 39.261719 C 39.839844 39.238281 40.09375 39.332031 40.324219 39.308594 C 40.761719 39.332031 41.132812 39.007812 41.15625 38.570312 L 41.15625 38.453125 C 41.132812 37.785156 41.132812 37.113281 41.132812 36.445312 M 60.835938 39.816406 C 60.835938 37.96875 60.835938 36.167969 60.859375 34.390625 C 60.859375 34.253906 61.089844 34.113281 61.230469 33.976562 C 61.34375 34.113281 61.574219 34.230469 61.574219 34.367188 C 61.597656 36.074219 61.597656 37.785156 61.574219 39.46875 C 61.597656 40.023438 61.230469 39.863281 60.835938 39.816406 M 44.707031 39.792969 C 44.132812 40 43.925781 39.839844 43.949219 39.308594 C 43.96875 37.738281 43.949219 36.167969 43.96875 34.574219 C 43.96875 34.367188 44.179688 34.046875 44.316406 34.023438 C 44.777344 33.929688 44.707031 34.320312 44.707031 34.621094 Z M 44.6875 33.515625 C 44.363281 33.515625 43.96875 33.746094 43.96875 33.191406 C 44.015625 33.007812 44.132812 32.867188 44.292969 32.796875 C 44.800781 32.730469 44.730469 33.097656 44.6875 33.515625 M 60.882812 33.605469 L 60.882812 32.777344 C 61.113281 32.796875 61.34375 32.867188 61.550781 32.960938 C 61.621094 33.097656 61.621094 33.261719 61.550781 33.398438 C 61.34375 33.492188 61.113281 33.558594 60.882812 33.605469 "/>
</g>
</svg>
